<mxfile host="app.diagrams.net" modified="2023-09-17T18:28:45.992Z" agent="Mozilla/5.0 (Macintosh; Intel Mac OS X 10_15_7) AppleWebKit/537.36 (KHTML, like Gecko) Chrome/112.0.0.0 Safari/537.36" version="21.7.5" etag="_xL0O4c1HT_ITkum8AK5" type="github">
  <diagram name="Page-1" id="fc-AXA1B-oiAbrL69Cqe">
    <mxGraphModel>
      <root>
        <mxCell id="0" />
        <mxCell id="1" parent="0" />
      </root>
    </mxGraphModel>
  </diagram>
</mxfile>
